<mxfile host="drawio-plugin" modified="2021-10-18T12:22:21.784Z" agent="5.0 (Windows NT 6.2; Win64; x64) AppleWebKit/537.36 (KHTML, like Gecko) Chrome/84.0.4147.105 Safari/537.36" version="14.7.4" etag="1x-KeT95HsVboRVKr7Oc" type="embed"><diagram id="7r7u67jY_-XH5JcdLRyX" name="Page-1"><mxGraphModel dx="1275" dy="456" grid="1" gridSize="10" guides="1" tooltips="1" connect="1" arrows="1" fold="1" page="1" pageScale="1" pageWidth="850" pageHeight="1100" math="0" shadow="0"><root><mxCell id="0"/><mxCell id="1" parent="0"/><mxCell id="16" value="" style="rounded=0;whiteSpace=wrap;html=1;align=left;" vertex="1" parent="1"><mxGeometry x="5" y="10" width="845" height="80" as="geometry"/></mxCell><mxCell id="2" value="logo" style="ellipse;whiteSpace=wrap;html=1;fillColor=#dae8fc;strokeColor=#6c8ebf;" vertex="1" parent="1"><mxGeometry x="30" y="20" width="60" height="60" as="geometry"/></mxCell><mxCell id="3" value="pet" style="rounded=0;whiteSpace=wrap;html=1;" vertex="1" parent="1"><mxGeometry x="110" y="20" width="180" height="60" as="geometry"/></mxCell><mxCell id="4" value="" style="rounded=1;whiteSpace=wrap;html=1;" vertex="1" parent="1"><mxGeometry x="120" y="90" width="120" height="120" as="geometry"/></mxCell><mxCell id="5" value="view" style="rounded=0;whiteSpace=wrap;html=1;fillColor=#dae8fc;strokeColor=#6c8ebf;" vertex="1" parent="1"><mxGeometry x="125" y="150" width="110" height="40" as="geometry"/></mxCell><mxCell id="6" value="add" style="rounded=0;whiteSpace=wrap;html=1;fillColor=#dae8fc;strokeColor=#6c8ebf;" vertex="1" parent="1"><mxGeometry x="125" y="100" width="110" height="40" as="geometry"/></mxCell><mxCell id="7" value="donations" style="rounded=0;whiteSpace=wrap;html=1;fillColor=#dae8fc;strokeColor=#6c8ebf;" vertex="1" parent="1"><mxGeometry x="310" y="20" width="130" height="60" as="geometry"/></mxCell><mxCell id="8" style="edgeStyle=orthogonalEdgeStyle;rounded=0;orthogonalLoop=1;jettySize=auto;html=1;exitX=0.5;exitY=1;exitDx=0;exitDy=0;" edge="1" parent="1" source="4" target="4"><mxGeometry relative="1" as="geometry"/></mxCell><mxCell id="9" value="visits" style="rounded=0;whiteSpace=wrap;html=1;fillColor=#dae8fc;strokeColor=#6c8ebf;" vertex="1" parent="1"><mxGeometry x="460" y="20" width="120" height="60" as="geometry"/></mxCell><mxCell id="11" value="Logout" style="rounded=0;whiteSpace=wrap;html=1;fillColor=#dae8fc;strokeColor=#6c8ebf;" vertex="1" parent="1"><mxGeometry x="740" y="30" width="100" height="30" as="geometry"/></mxCell><mxCell id="12" value="by category" style="rounded=0;whiteSpace=wrap;html=1;fillColor=#dae8fc;strokeColor=#6c8ebf;" vertex="1" parent="1"><mxGeometry x="250" y="140" width="120" height="30" as="geometry"/></mxCell><mxCell id="13" value="by name" style="rounded=0;whiteSpace=wrap;html=1;fillColor=#dae8fc;strokeColor=#6c8ebf;" vertex="1" parent="1"><mxGeometry x="250" y="170" width="120" height="30" as="geometry"/></mxCell><mxCell id="15" value="adoptions" style="rounded=0;whiteSpace=wrap;html=1;fillColor=#dae8fc;strokeColor=#6c8ebf;" vertex="1" parent="1"><mxGeometry x="600" y="20" width="120" height="60" as="geometry"/></mxCell><mxCell id="40" value="&lt;table border=&quot;1&quot; width=&quot;100%&quot; cellpadding=&quot;4&quot; style=&quot;width: 100% ; height: 100% ; border-collapse: collapse&quot;&gt;&lt;tbody&gt;&lt;tr style=&quot;background-color: #a7c942 ; color: #ffffff ; border: 1px solid #98bf21&quot;&gt;&lt;th align=&quot;left&quot;&gt;Name&lt;/th&gt;&lt;th align=&quot;left&quot;&gt;Date&lt;/th&gt;&lt;th align=&quot;left&quot;&gt;Time&lt;/th&gt;&lt;/tr&gt;&lt;tr style=&quot;border: 1px solid #98bf21&quot;&gt;&lt;td&gt;Madalina Andrada&lt;/td&gt;&lt;td&gt;18.10.2021&lt;/td&gt;&lt;td&gt;09:00&lt;/td&gt;&lt;/tr&gt;&lt;tr style=&quot;background-color: #eaf2d3 ; border: 1px solid #98bf21&quot;&gt;&lt;td&gt;Cristi Tudorache&lt;/td&gt;&lt;td&gt;21.10.2021&lt;/td&gt;&lt;td&gt;11:00&lt;/td&gt;&lt;/tr&gt;&lt;tr style=&quot;border: 1px solid #98bf21&quot;&gt;&lt;td&gt;Mina Ionut&lt;/td&gt;&lt;td&gt;18.10.2021&lt;/td&gt;&lt;td&gt;09:00&lt;/td&gt;&lt;/tr&gt;&lt;tr style=&quot;background-color: #eaf2d3 ; border: 1px solid #98bf21&quot;&gt;&lt;td&gt;Valeriu Popa&lt;/td&gt;&lt;td&gt;27.10.2021&lt;/td&gt;&lt;td&gt;14:00&lt;/td&gt;&lt;/tr&gt;&lt;/tbody&gt;&lt;/table&gt;" style="text;html=1;strokeColor=#c0c0c0;fillColor=#ffffff;overflow=fill;rounded=0;" vertex="1" parent="1"><mxGeometry x="25" y="1330" width="350" height="161" as="geometry"/></mxCell><mxCell id="41" value="&lt;table border=&quot;1&quot; width=&quot;100%&quot; cellpadding=&quot;4&quot; style=&quot;width: 100% ; height: 100% ; border-collapse: collapse&quot;&gt;&lt;tbody&gt;&lt;tr style=&quot;background-color: #a7c942 ; color: #ffffff ; border: 1px solid #98bf21&quot;&gt;&lt;th align=&quot;left&quot;&gt;Pet&lt;/th&gt;&lt;th align=&quot;left&quot;&gt;Status&lt;/th&gt;&lt;th align=&quot;left&quot;&gt;Notes&lt;/th&gt;&lt;/tr&gt;&lt;tr style=&quot;border: 1px solid #98bf21&quot;&gt;&lt;td&gt;Mike&amp;nbsp;&lt;/td&gt;&lt;td&gt;Sent&lt;/td&gt;&lt;td&gt;&lt;/td&gt;&lt;/tr&gt;&lt;tr style=&quot;background-color: #eaf2d3 ; border: 1px solid #98bf21&quot;&gt;&lt;td&gt;Sushi&lt;/td&gt;&lt;td&gt;&lt;span style=&quot;color: rgba(0 , 0 , 0 , 0) ; font-family: monospace ; font-size: 0px ; background-color: rgb(248 , 249 , 250)&quot;&gt;%3CmxGraphModel%3E%3Croot%3E%3CmxCell%20id%3D%220%22%2F%3E%3CmxCell%20id%3D%221%22%20parent%3D%220%22%2F%3E%3CmxCell%20id%3D%222%22%20value%3D%22Success%22%20style%3D%22html%3D1%3Bshadow%3D0%3Bdashed%3D0%3Bshape%3Dmxgraph.bootstrap.rrect%3BrSize%3D5%3BstrokeColor%3Dnone%3BstrokeWidth%3D1%3BfillColor%3D%2333A64C%3BfontColor%3D%23FFFFFF%3BwhiteSpace%3Dwrap%3Balign%3Dcenter%3BverticalAlign%3Dmiddle%3BspacingLeft%3D0%3BfontStyle%3D0%3BfontSize%3D16%3Bspacing%3D5%3B%22%20vertex%3D%221%22%20parent%3D%221%22%3E%3CmxGeometry%20x%3D%22500%22%20y%3D%221050%22%20width%3D%2260%22%20height%3D%2220%22%20as%3D%22geometry%22%2F%3E%3C%2FmxCell%3E%3C%2Froot%3E%3C%2FmxGraphModel%3EconfirmeVC&lt;/span&gt;&lt;/td&gt;&lt;td&gt;&lt;br&gt;&lt;/td&gt;&lt;/tr&gt;&lt;tr style=&quot;border: 1px solid #98bf21&quot;&gt;&lt;td&gt;Mike&lt;/td&gt;&lt;td&gt;Done&lt;/td&gt;&lt;td&gt;&lt;br&gt;&lt;/td&gt;&lt;/tr&gt;&lt;tr style=&quot;background-color: #eaf2d3 ; border: 1px solid #98bf21&quot;&gt;&lt;td&gt;Luna&lt;/td&gt;&lt;td&gt;Confirmed&lt;/td&gt;&lt;td&gt;&lt;br&gt;&lt;/td&gt;&lt;/tr&gt;&lt;/tbody&gt;&lt;/table&gt;" style="text;html=1;strokeColor=#c0c0c0;fillColor=#ffffff;overflow=fill;rounded=0;" vertex="1" parent="1"><mxGeometry x="370" y="1330" width="340" height="160" as="geometry"/></mxCell><mxCell id="42" value="Visits" style="whiteSpace=wrap;html=1;" vertex="1" parent="1"><mxGeometry x="20" y="1280" width="120" height="30" as="geometry"/></mxCell><mxCell id="44" value="&lt;table border=&quot;1&quot; width=&quot;100%&quot; cellpadding=&quot;4&quot; style=&quot;color: rgb(0 , 0 , 0) ; font-family: &amp;#34;helvetica&amp;#34; ; font-size: 12px ; font-style: normal ; font-weight: 400 ; letter-spacing: normal ; text-align: left ; text-indent: 0px ; text-transform: none ; word-spacing: 0px ; background-color: rgb(248 , 249 , 250) ; width: 340px ; height: 160px ; border-collapse: collapse&quot;&gt;&lt;tbody&gt;&lt;tr style=&quot;background-color: rgb(167 , 201 , 66) ; color: rgb(255 , 255 , 255) ; border: 1px solid rgb(152 , 191 , 33)&quot;&gt;&lt;th align=&quot;left&quot;&gt;Name&lt;/th&gt;&lt;th align=&quot;left&quot;&gt;Money&lt;/th&gt;&lt;th align=&quot;left&quot;&gt;Food&lt;/th&gt;&lt;/tr&gt;&lt;tr style=&quot;border: 1px solid rgb(152 , 191 , 33)&quot;&gt;&lt;td&gt;Madalina Andrada&lt;/td&gt;&lt;td&gt;500 eur&lt;/td&gt;&lt;td&gt;10 kg Purina food&lt;/td&gt;&lt;/tr&gt;&lt;tr style=&quot;background-color: rgb(234 , 242 , 211) ; border: 1px solid rgb(152 , 191 , 33)&quot;&gt;&lt;td&gt;Cristi Tudorache&lt;/td&gt;&lt;td&gt;100 lei&lt;/td&gt;&lt;td&gt;&lt;br&gt;&lt;/td&gt;&lt;/tr&gt;&lt;tr style=&quot;border: 1px solid rgb(152 , 191 , 33)&quot;&gt;&lt;td&gt;Mina Ionut&lt;/td&gt;&lt;td&gt;&lt;/td&gt;&lt;td&gt;&lt;/td&gt;&lt;/tr&gt;&lt;tr style=&quot;background-color: rgb(234 , 242 , 211) ; border: 1px solid rgb(152 , 191 , 33)&quot;&gt;&lt;td&gt;Valeriu Popa&lt;/td&gt;&lt;td&gt;&lt;/td&gt;&lt;td&gt;&lt;br&gt;&lt;/td&gt;&lt;/tr&gt;&lt;/tbody&gt;&lt;/table&gt;" style="text;whiteSpace=wrap;html=1;" vertex="1" parent="1"><mxGeometry x="20" y="1070" width="370" height="180" as="geometry"/></mxCell><mxCell id="46" value="&lt;table border=&quot;1&quot; width=&quot;100%&quot; cellpadding=&quot;4&quot; style=&quot;color: rgb(0 , 0 , 0) ; font-family: &amp;#34;helvetica&amp;#34; ; font-size: 12px ; font-style: normal ; font-weight: 400 ; letter-spacing: normal ; text-align: left ; text-indent: 0px ; text-transform: none ; word-spacing: 0px ; background-color: rgb(248 , 249 , 250) ; width: 340px ; height: 160px ; border-collapse: collapse&quot;&gt;&lt;tbody&gt;&lt;tr style=&quot;background-color: rgb(167 , 201 , 66) ; color: rgb(255 , 255 , 255) ; border: 1px solid rgb(152 , 191 , 33)&quot;&gt;&lt;th align=&quot;left&quot;&gt;Medical supplies&lt;/th&gt;&lt;th align=&quot;left&quot;&gt;Toys&lt;/th&gt;&lt;th align=&quot;left&quot;&gt;Others&lt;/th&gt;&lt;/tr&gt;&lt;tr style=&quot;border: 1px solid rgb(152 , 191 , 33)&quot;&gt;&lt;td&gt;&lt;br&gt;&lt;/td&gt;&lt;td&gt;&lt;br&gt;&lt;/td&gt;&lt;td&gt;&lt;br&gt;&lt;/td&gt;&lt;/tr&gt;&lt;tr style=&quot;background-color: rgb(234 , 242 , 211) ; border: 1px solid rgb(152 , 191 , 33)&quot;&gt;&lt;td&gt;&lt;br&gt;&lt;/td&gt;&lt;td&gt;&lt;br&gt;&lt;/td&gt;&lt;td&gt;&lt;br&gt;&lt;/td&gt;&lt;/tr&gt;&lt;tr style=&quot;border: 1px solid rgb(152 , 191 , 33)&quot;&gt;&lt;td&gt;parasite protection- frontline&lt;/td&gt;&lt;td&gt;&lt;/td&gt;&lt;td&gt;&lt;/td&gt;&lt;/tr&gt;&lt;tr style=&quot;background-color: rgb(234 , 242 , 211) ; border: 1px solid rgb(152 , 191 , 33)&quot;&gt;&lt;td&gt;&lt;br&gt;&lt;/td&gt;&lt;td&gt;5 tennis balls&lt;/td&gt;&lt;td&gt;&lt;br&gt;&lt;/td&gt;&lt;/tr&gt;&lt;/tbody&gt;&lt;/table&gt;" style="text;whiteSpace=wrap;html=1;" vertex="1" parent="1"><mxGeometry x="360" y="1070" width="370" height="180" as="geometry"/></mxCell><UserObject label="&lt;span style=&quot;font-size: 20px&quot;&gt;&lt;b&gt;Luna&lt;/b&gt;&lt;/span&gt;&lt;br&gt;&lt;br&gt;Hi,&lt;br&gt;This is me. I have a sad story behind my lovely face, but let the past in the past. I am healthy and this is&amp;nbsp; the most important thing. I am looking for a mom and dad. I love kids, bla bla&lt;br&gt;&lt;font color=&quot;#999999&quot; style=&quot;font-size: 12px&quot;&gt;Last udated 3 mind ago&lt;/font&gt;" id="48"><mxCell style="html=1;shadow=0;dashed=0;shape=mxgraph.bootstrap.rrect;rSize=5;strokeColor=#DFDFDF;html=1;whiteSpace=wrap;fillColor=#ffffff;fontColor=#000000;verticalAlign=top;align=left;spacing=20;spacingBottom=0;fontSize=14;spacingTop=160;" vertex="1" parent="1"><mxGeometry x="30" y="290" width="260" height="360" as="geometry"/></mxCell></UserObject><UserObject label="Image cap" link="http://images.unsplash.com/photo-1570824105192-a7bb72b73141?ixlib=rb-1.2.1&amp;q=80&amp;fm=jpg&amp;crop=entropy&amp;cs=tinysrgb&amp;w=1080&amp;fit=max&amp;ixid=eyJhcHBfaWQiOjEyMDd9" id="49"><mxCell style="html=1;shadow=0;dashed=0;shape=mxgraph.bootstrap.topButton;rSize=5;perimeter=none;whiteSpace=wrap;fillColor=#868E96;strokeColor=#DFDFDF;fontColor=#DEE2E6;resizeWidth=1;fontSize=18;" vertex="1" parent="48"><mxGeometry width="260" height="160" relative="1" as="geometry"/></mxCell></UserObject><mxCell id="50" value="UPDATE&amp;nbsp;" style="html=1;shadow=0;dashed=0;shape=mxgraph.bootstrap.rrect;rSize=5;strokeColor=#d6b656;strokeWidth=1;fillColor=#fff2cc;whiteSpace=wrap;align=center;verticalAlign=middle;spacingLeft=0;fontStyle=0;fontSize=16;spacing=5;" vertex="1" parent="1"><mxGeometry x="40" y="650" width="100" height="40" as="geometry"/></mxCell><mxCell id="51" value="DELETE" style="html=1;shadow=0;dashed=0;shape=mxgraph.bootstrap.rrect;rSize=5;strokeColor=#d6b656;strokeWidth=1;fillColor=#fff2cc;whiteSpace=wrap;align=center;verticalAlign=middle;spacingLeft=0;fontStyle=0;fontSize=16;spacing=5;" vertex="1" parent="1"><mxGeometry x="200" y="650" width="80" height="40" as="geometry"/></mxCell><mxCell id="53" value="p&lt;div style=&quot;text-align: justify&quot;&gt;&lt;/div&gt;" style="whiteSpace=wrap;html=1;aspect=fixed;" vertex="1" parent="1"><mxGeometry x="380" y="280" width="390" height="390" as="geometry"/></mxCell><mxCell id="54" value="Insert new picture" style="rounded=0;whiteSpace=wrap;html=1;fillColor=#fff2cc;strokeColor=#d6b656;" vertex="1" parent="1"><mxGeometry x="390" y="340" width="230" height="40" as="geometry"/></mxCell><mxCell id="60" value="Name" style="rounded=0;whiteSpace=wrap;html=1;fillColor=#fff2cc;strokeColor=#d6b656;" vertex="1" parent="1"><mxGeometry x="390" y="390" width="230" height="40" as="geometry"/></mxCell><mxCell id="61" value="Category" style="rounded=0;whiteSpace=wrap;html=1;fillColor=#fff2cc;strokeColor=#d6b656;" vertex="1" parent="1"><mxGeometry x="390" y="440" width="230" height="40" as="geometry"/></mxCell><mxCell id="62" value="Date of birth" style="rounded=0;whiteSpace=wrap;html=1;fillColor=#fff2cc;strokeColor=#d6b656;" vertex="1" parent="1"><mxGeometry x="390" y="490" width="230" height="40" as="geometry"/></mxCell><mxCell id="63" value="Description" style="rounded=0;whiteSpace=wrap;html=1;fillColor=#fff2cc;strokeColor=#d6b656;" vertex="1" parent="1"><mxGeometry x="390" y="540" width="230" height="40" as="geometry"/></mxCell><mxCell id="64" value="Form" style="rounded=0;whiteSpace=wrap;html=1;" vertex="1" parent="1"><mxGeometry x="515" y="290" width="120" height="30" as="geometry"/></mxCell><mxCell id="66" value="Add" style="rounded=1;whiteSpace=wrap;html=1;fillColor=#e1d5e7;strokeColor=#9673a6;" vertex="1" parent="1"><mxGeometry x="390" y="600" width="90" height="40" as="geometry"/></mxCell><mxCell id="67" value="Cancel" style="rounded=1;whiteSpace=wrap;html=1;fillColor=#e1d5e7;strokeColor=#9673a6;" vertex="1" parent="1"><mxGeometry x="540" y="600" width="80" height="40" as="geometry"/></mxCell><mxCell id="69" value="&lt;table border=&quot;1&quot; width=&quot;100%&quot; cellpadding=&quot;4&quot; style=&quot;width: 100% ; height: 100% ; border-collapse: collapse&quot;&gt;&lt;tbody&gt;&lt;tr style=&quot;background-color: #a7c942 ; color: #ffffff ; border: 1px solid #98bf21&quot;&gt;&lt;th align=&quot;left&quot;&gt;Name&lt;/th&gt;&lt;th align=&quot;left&quot;&gt;Date&lt;/th&gt;&lt;th align=&quot;left&quot;&gt;Pet&lt;/th&gt;&lt;/tr&gt;&lt;tr style=&quot;border: 1px solid #98bf21&quot;&gt;&lt;td&gt;Madalina Andrada&lt;/td&gt;&lt;td&gt;18.10.2021&lt;/td&gt;&lt;td&gt;&lt;br&gt;&lt;/td&gt;&lt;/tr&gt;&lt;tr style=&quot;background-color: #eaf2d3 ; border: 1px solid #98bf21&quot;&gt;&lt;td&gt;Cristi Tudorache&lt;/td&gt;&lt;td&gt;21.10.2021&lt;/td&gt;&lt;td&gt;&lt;br&gt;&lt;/td&gt;&lt;/tr&gt;&lt;tr style=&quot;border: 1px solid #98bf21&quot;&gt;&lt;td&gt;Mina Ionut&lt;/td&gt;&lt;td&gt;18.10.2021&lt;/td&gt;&lt;td&gt;&lt;br&gt;&lt;/td&gt;&lt;/tr&gt;&lt;tr style=&quot;background-color: #eaf2d3 ; border: 1px solid #98bf21&quot;&gt;&lt;td&gt;Valeriu Popa&lt;/td&gt;&lt;td&gt;27.10.2021&lt;/td&gt;&lt;td&gt;&lt;br&gt;&lt;/td&gt;&lt;/tr&gt;&lt;/tbody&gt;&lt;/table&gt;" style="text;html=1;strokeColor=#c0c0c0;fillColor=#ffffff;overflow=fill;rounded=0;" vertex="1" parent="1"><mxGeometry x="25" y="1640" width="350" height="161" as="geometry"/></mxCell><mxCell id="70" value="Donations" style="whiteSpace=wrap;html=1;" vertex="1" parent="1"><mxGeometry x="20" y="1000" width="120" height="30" as="geometry"/></mxCell><mxCell id="71" value="Adoptions" style="whiteSpace=wrap;html=1;" vertex="1" parent="1"><mxGeometry x="40" y="1590" width="120" height="30" as="geometry"/></mxCell></root></mxGraphModel></diagram></mxfile>